<mxfile host="app.diagrams.net" modified="2023-08-14T09:36:49.483Z" agent="Mozilla/5.0 (Windows NT 10.0; Win64; x64) AppleWebKit/537.36 (KHTML, like Gecko) Chrome/115.0.0.0 Safari/537.36 Avast/115.0.21984.171" version="21.5.0" etag="cpEpKkK8SNBrt_9uB8OU" type="github">
  <diagram name="Page-1" id="Uq2BC3oJX1P7q2fy9rag">
    <mxGraphModel>
      <root>
        <mxCell id="0" />
        <mxCell id="1" parent="0" />
      </root>
    </mxGraphModel>
  </diagram>
</mxfile>
